<svg version="1.0" xmlns="http://www.w3.org/2000/svg"  width="300.000000pt" height="100.000000pt" viewBox="0 0 300.000000 100.000000"  preserveAspectRatio="xMidYMid meet">  <g transform="translate(0.000000,100.000000) scale(0.100000,-0.100000)" fill="#000000" stroke="none"> <path d="M877 937 c-30 -30 -59 -68 -66 -86 -9 -19 -36 -46 -73 -71 -33 -22 -62 -40 -64 -40 -1 0 0 15 3 34 3 21 -1 47 -11 68 -54 113 -243 81 -392 -67 -74 -73 -107 -139 -112 -222 -5 -78 10 -124 54 -163 34 -29 35 -32 23 -64 -14 -38 -5 -98 16 -116 10 -8 15 -9 15 -2 0 6 -4 13 -9 16 -16 10 -22 56 -11 96 10 37 12 39 36 30 75 -29 222 4 322 70 115 77 157 142 193 300 23 99 21 97 77 134 52 36 115 103 109 119 -2 7 -16 13 -30 15 -22 3 -38 -8 -80 -51z m93 32 c0 -22 -21 -47 -74 -87 -30 -23 -58 -42 -61 -42 -12 0 27 61 64 100 36 38 71 53 71 29z m-365 -83 c18 -8 38 -23 44 -34 15 -28 14 -115 -1 -130 -7 -7 -9 -12 -5 -12 14 0 -41 -96 -82 -142 -59 -67 -165 -112 -186 -78 -6 9 94 93 204 170 34 24 59 45 57 48 -6 6 -199 -136 -245 -179 -32 -31 -34 -32 -47 -14 -15 20 -18 44 -8 69 9 23 23 20 17 -4 -7 -25 21 -37 43 -19 21 18 14 53 -13 57 -48 7 -82 -69 -49 -113 12 -16 8 -25 -33 -76 l-46 -58 -22 21 c-81 75 -41 255 85 386 98 102 205 142 287 108z m149 -163 c-46 -124 -85 -193 -144 -254 -80 -81 -150 -113 -252 -114 -42 0 -80 3 -84 7 -3 4 13 32 37 61 42 52 46 54 85 49 27 -3 54 2 80 14 56 26 136 112 164 175 18 41 37 64 75 91 27 20 53 37 57 37 4 1 -4 -29 -18 -66z"/> <path d="M1651 813 c-7 -16 -54 -97 -104 -182 -124 -208 -232 -318 -245 -251 -2 13 50 107 112 203 l18 27 -30 0 c-27 0 -35 -7 -63 -57 -18 -32 -40 -67 -49 -78 -20 -24 -25 -78 -10 -105 19 -35 58 -25 110 28 l48 47 -5 -31 c-6 -35 16 -64 50 -64 12 0 41 21 69 50 48 49 48 50 48 22 0 -56 68 -89 123 -61 12 6 44 32 71 58 28 26 44 37 37 24 -15 -30 -14 -59 5 -77 25 -26 54 -19 92 22 l35 37 -28 -50 c-15 -27 -42 -77 -60 -110 -57 -102 -119 -180 -159 -199 -46 -22 -86 -15 -86 16 0 53 66 116 189 177 34 18 61 35 58 38 -12 11 -154 -74 -204 -123 -41 -39 -53 -57 -53 -80 0 -129 200 -17 309 173 26 45 46 66 78 83 44 23 169 147 159 158 -3 3 -16 -8 -28 -24 -31 -41 -102 -106 -139 -128 l-32 -19 33 59 c62 110 103 179 119 197 15 18 14 18 -18 15 -30 -3 -39 -11 -78 -73 -24 -38 -47 -77 -50 -85 -8 -22 -80 -82 -100 -84 -10 0 -19 6 -20 14 -3 14 53 115 111 203 l18 27 -29 0 c-24 0 -34 -9 -63 -57 -82 -138 -209 -228 -250 -178 -29 35 14 98 75 109 58 11 126 46 135 70 11 31 -6 56 -39 56 -40 0 -147 -56 -173 -92 -40 -52 -122 -139 -141 -150 -13 -7 -23 -6 -30 1 -15 15 -1 41 135 268 62 103 115 191 116 196 2 4 -9 7 -26 7 -22 0 -32 -7 -41 -27z m179 -226 c0 -23 -55 -67 -109 -87 -48 -19 -51 -19 -42 -3 11 21 55 63 91 86 29 20 60 22 60 4z"/> <path d="M2502 811 c-67 -23 -142 -95 -174 -165 -34 -78 -32 -192 5 -268 91 -185 309 -234 456 -102 74 67 106 138 106 239 0 101 -32 172 -106 239 -82 74 -182 93 -287 57z m134 0 c-3 -4 6 -6 21 -3 22 4 25 2 20 -12 -5 -14 -3 -15 10 -7 18 9 73 -11 73 -27 0 -4 10 -12 22 -17 29 -12 90 -114 84 -138 -2 -9 0 -15 4 -12 5 3 12 -15 15 -39 8 -49 -2 -129 -15 -121 -4 3 -6 -5 -2 -17 3 -14 1 -19 -6 -14 -7 4 -10 2 -6 -7 9 -23 -58 -110 -110 -141 -35 -22 -60 -30 -90 -29 -30 1 -36 -1 -21 -7 15 -6 6 -9 -30 -9 -35 -1 -46 2 -35 9 10 6 2 9 -29 7 -28 -1 -46 3 -49 11 -2 7 -7 10 -12 7 -5 -3 -14 1 -22 8 -7 8 -23 19 -35 26 -33 17 -84 96 -76 117 4 11 3 15 -4 11 -16 -10 -24 19 -18 66 4 33 3 36 -4 17 -8 -22 -9 -20 -10 16 -1 52 9 105 19 99 5 -3 6 3 3 13 -12 46 109 167 191 191 40 12 119 14 112 2z"/> <path d="M2489 674 c-19 -23 -16 -81 5 -102 16 -16 18 -16 37 7 23 28 24 59 3 89 -18 26 -27 27 -45 6z"/> <path d="M2666 668 c-19 -27 -20 -48 -4 -83 14 -32 33 -32 54 0 17 26 13 67 -8 92 -15 18 -25 16 -42 -9z m27 -38 c3 -11 1 -18 -4 -14 -5 3 -9 12 -9 20 0 20 7 17 13 -6z"/> <path d="M2322 540 c0 -14 2 -19 5 -12 2 6 2 18 0 25 -3 6 -5 1 -5 -13z"/> <path d="M2427 460 c-3 -12 -14 -20 -26 -20 -12 0 -21 -5 -21 -11 0 -6 9 -9 19 -6 15 3 27 -5 45 -34 34 -50 91 -79 156 -79 65 0 122 29 156 79 18 29 30 37 45 34 10 -3 19 0 19 6 0 6 -9 11 -21 11 -12 0 -23 8 -26 20 -3 11 -9 20 -14 20 -12 0 -11 -24 1 -36 14 -14 -44 -81 -87 -99 -75 -32 -157 -12 -212 51 -23 26 -29 40 -22 47 13 13 14 37 2 37 -5 0 -11 -9 -14 -20z"/> <path d="M2331 434 c0 -11 3 -14 6 -6 3 7 2 16 -1 19 -3 4 -6 -2 -5 -13z"/> <path d="M1422 718 c-15 -15 -16 -58 -1 -58 25 0 49 22 49 45 0 27 -27 34 -48 13z"/> <path d="M834 563 c-24 -27 -44 -52 -44 -57 0 -6 22 14 48 44 30 33 53 51 60 46 7 -4 12 -11 12 -15 0 -4 -31 -58 -69 -119 l-70 -112 29 0 c24 0 33 7 49 39 27 52 135 187 162 201 59 32 33 -48 -57 -177 l-43 -63 32 0 c29 1 36 8 72 66 54 89 147 187 171 182 26 -5 19 -33 -22 -90 -50 -67 -60 -102 -40 -133 25 -38 56 -32 106 22 l45 47 -47 -42 c-85 -75 -105 -45 -37 55 42 63 52 110 29 138 -27 33 -80 10 -130 -58 -32 -43 -37 -44 -19 -3 10 20 9 30 -5 51 -28 42 -68 27 -121 -44 -27 -37 -30 -37 -16 1 12 32 -4 68 -30 68 -12 0 -39 -19 -65 -47z"/> <path d="M2932 555 c0 -16 2 -22 5 -12 2 9 2 23 0 30 -3 6 -5 -1 -5 -18z"/> <path d="M2971 554 c0 -11 3 -14 6 -6 3 7 2 16 -1 19 -3 4 -6 -2 -5 -13z"/> <path d="M2932 480 c0 -14 2 -19 5 -12 2 6 2 18 0 25 -3 6 -5 1 -5 -13z"/> <path d="M2972 470 c0 -14 2 -19 5 -12 2 6 2 18 0 25 -3 6 -5 1 -5 -13z"/> </g> </svg>